<?xml version="1.0" encoding="utf-8"?>
<svg xmlns="http://www.w3.org/2000/svg" style="display: none;">
  <!-- Tabler Icons -->
  <symbol id="icon-share" viewBox="0 0 24 24" fill="none" stroke="currentColor" stroke-width="2" stroke-linecap="round" stroke-linejoin="round">
    <path d="M18 8a3 3 0 0 1 0 6m-6-6a3 3 0 1 1 0-6 3 3 0 0 1 0 6zm0 0v12m0 0a3 3 0 1 1 0 6 3 3 0 0 1 0-6zm12-6a3 3 0 1 1 0-6 3 3 0 0 1 0 6z"/>
  </symbol>
  
  <symbol id="icon-play" viewBox="0 0 24 24" fill="none" stroke="currentColor" stroke-width="2" stroke-linecap="round" stroke-linejoin="round">
    <path d="M5 3l14 9-14 9V3z"/>
  </symbol>
  
  <symbol id="icon-save" viewBox="0 0 24 24" fill="none" stroke="currentColor" stroke-width="2" stroke-linecap="round" stroke-linejoin="round">
    <path d="M19 21H5a2 2 0 0 1-2-2V5a2 2 0 0 1 2-2h11l5 5v11a2 2 0 0 1-2 2z"/>
    <polyline points="17 21 17 13 7 13 7 21"/>
    <polyline points="7 3 7 8 15 8"/>
  </symbol>
  
  <symbol id="icon-reset" viewBox="0 0 24 24" fill="none" stroke="currentColor" stroke-width="2" stroke-linecap="round" stroke-linejoin="round">
    <path d="M21.5 2v6h-6M21.34 15.57a10 10 0 1 1-.57-8.38"/>
  </symbol>
  
  <symbol id="icon-sandbox" viewBox="0 0 24 24" fill="none" stroke="currentColor" stroke-width="2" stroke-linecap="round" stroke-linejoin="round">
    <rect x="3" y="3" width="18" height="18" rx="2" ry="2"/>
    <path d="M3 9h18M3 15h18M12 3v18"/>
  </symbol>
  
  <!-- Add more icons as needed -->
</svg>
